<mxfile host="app.diagrams.net" modified="2023-02-27T04:39:51.656Z" agent="5.0 (Windows NT 10.0; Win64; x64) AppleWebKit/537.36 (KHTML, like Gecko) Chrome/110.0.0.0 Safari/537.36" etag="utId63PzEvKISaApGkWj" version="20.8.23" type="github">
  <diagram name="Trang-1" id="rQNePx-MQKR96wdazqCg">
    <mxGraphModel dx="1114" dy="584" grid="1" gridSize="10" guides="1" tooltips="1" connect="1" arrows="1" fold="1" page="1" pageScale="1" pageWidth="827" pageHeight="1169" math="0" shadow="0">
      <root>
        <mxCell id="0" />
        <mxCell id="1" parent="0" />
        <mxCell id="0BREnOfS-ZAUlYOvI6JY-1" value="Quán&amp;nbsp; trị viên" style="shape=umlActor;verticalLabelPosition=bottom;verticalAlign=top;html=1;outlineConnect=0;" vertex="1" parent="1">
          <mxGeometry x="40" y="200" width="50" height="90" as="geometry" />
        </mxCell>
        <mxCell id="0BREnOfS-ZAUlYOvI6JY-30" value="" style="edgeStyle=orthogonalEdgeStyle;rounded=0;orthogonalLoop=1;jettySize=auto;html=1;" edge="1" parent="1" source="0BREnOfS-ZAUlYOvI6JY-2" target="0BREnOfS-ZAUlYOvI6JY-1">
          <mxGeometry relative="1" as="geometry" />
        </mxCell>
        <mxCell id="0BREnOfS-ZAUlYOvI6JY-2" value="" style="whiteSpace=wrap;html=1;aspect=fixed;" vertex="1" parent="1">
          <mxGeometry x="140" y="25" width="440" height="440" as="geometry" />
        </mxCell>
        <mxCell id="0BREnOfS-ZAUlYOvI6JY-4" value="Quản lí người dùng" style="ellipse;whiteSpace=wrap;html=1;" vertex="1" parent="1">
          <mxGeometry x="294" y="50" width="120" height="80" as="geometry" />
        </mxCell>
        <mxCell id="0BREnOfS-ZAUlYOvI6JY-7" value="Quản lí đơn hàng, vận chuyển" style="ellipse;whiteSpace=wrap;html=1;" vertex="1" parent="1">
          <mxGeometry x="294" y="265" width="120" height="80" as="geometry" />
        </mxCell>
        <mxCell id="0BREnOfS-ZAUlYOvI6JY-8" value="Quản lí tồn kho" style="ellipse;whiteSpace=wrap;html=1;" vertex="1" parent="1">
          <mxGeometry x="294" y="370" width="120" height="80" as="geometry" />
        </mxCell>
        <mxCell id="0BREnOfS-ZAUlYOvI6JY-9" value="Quản lí sản phẩm" style="ellipse;whiteSpace=wrap;html=1;" vertex="1" parent="1">
          <mxGeometry x="294" y="150" width="120" height="80" as="geometry" />
        </mxCell>
        <mxCell id="0BREnOfS-ZAUlYOvI6JY-13" value="Đăng nhập hệ thống" style="ellipse;whiteSpace=wrap;html=1;" vertex="1" parent="1">
          <mxGeometry x="670" y="185" width="120" height="80" as="geometry" />
        </mxCell>
        <mxCell id="0BREnOfS-ZAUlYOvI6JY-19" value="&amp;lt;&amp;lt;extend&amp;gt;&amp;gt;" style="html=1;verticalAlign=bottom;endArrow=open;dashed=1;endSize=8;edgeStyle=elbowEdgeStyle;elbow=vertical;curved=0;rounded=0;entryX=0.5;entryY=0;entryDx=0;entryDy=0;exitX=1;exitY=0.5;exitDx=0;exitDy=0;" edge="1" parent="1" source="0BREnOfS-ZAUlYOvI6JY-4" target="0BREnOfS-ZAUlYOvI6JY-13">
          <mxGeometry relative="1" as="geometry">
            <mxPoint x="450" y="170" as="sourcePoint" />
            <mxPoint x="370" y="170" as="targetPoint" />
            <Array as="points">
              <mxPoint x="480" y="100" />
            </Array>
          </mxGeometry>
        </mxCell>
        <mxCell id="0BREnOfS-ZAUlYOvI6JY-20" value="&amp;lt;&amp;lt;extend&amp;gt;&amp;gt;" style="html=1;verticalAlign=bottom;endArrow=open;dashed=1;endSize=8;edgeStyle=elbowEdgeStyle;elbow=vertical;curved=0;rounded=0;entryX=0.058;entryY=0.2;entryDx=0;entryDy=0;entryPerimeter=0;" edge="1" parent="1" target="0BREnOfS-ZAUlYOvI6JY-13">
          <mxGeometry relative="1" as="geometry">
            <mxPoint x="410" y="200" as="sourcePoint" />
            <mxPoint x="590" y="210" as="targetPoint" />
            <Array as="points" />
          </mxGeometry>
        </mxCell>
        <mxCell id="0BREnOfS-ZAUlYOvI6JY-22" value="&amp;lt;&amp;lt;extend&amp;gt;&amp;gt;" style="html=1;verticalAlign=bottom;endArrow=open;dashed=1;endSize=8;edgeStyle=elbowEdgeStyle;elbow=vertical;curved=0;rounded=0;entryX=0;entryY=1;entryDx=0;entryDy=0;exitX=1.008;exitY=0.638;exitDx=0;exitDy=0;exitPerimeter=0;" edge="1" parent="1" source="0BREnOfS-ZAUlYOvI6JY-7" target="0BREnOfS-ZAUlYOvI6JY-13">
          <mxGeometry relative="1" as="geometry">
            <mxPoint x="420" y="310" as="sourcePoint" />
            <mxPoint x="687" y="311" as="targetPoint" />
            <Array as="points">
              <mxPoint x="630" y="316" />
            </Array>
          </mxGeometry>
        </mxCell>
        <mxCell id="0BREnOfS-ZAUlYOvI6JY-23" value="&amp;lt;&amp;lt;extend&amp;gt;&amp;gt;" style="html=1;verticalAlign=bottom;endArrow=open;dashed=1;endSize=8;edgeStyle=elbowEdgeStyle;elbow=vertical;curved=0;rounded=0;exitX=1;exitY=0.5;exitDx=0;exitDy=0;" edge="1" parent="1" source="0BREnOfS-ZAUlYOvI6JY-8">
          <mxGeometry relative="1" as="geometry">
            <mxPoint x="430" y="220" as="sourcePoint" />
            <mxPoint x="730" y="270" as="targetPoint" />
            <Array as="points">
              <mxPoint x="410" y="420" />
            </Array>
          </mxGeometry>
        </mxCell>
        <mxCell id="0BREnOfS-ZAUlYOvI6JY-25" value="" style="endArrow=none;html=1;rounded=0;entryX=0;entryY=1;entryDx=0;entryDy=0;" edge="1" parent="1" source="0BREnOfS-ZAUlYOvI6JY-1" target="0BREnOfS-ZAUlYOvI6JY-4">
          <mxGeometry width="50" height="50" relative="1" as="geometry">
            <mxPoint x="390" y="300" as="sourcePoint" />
            <mxPoint x="440" y="250" as="targetPoint" />
          </mxGeometry>
        </mxCell>
        <mxCell id="0BREnOfS-ZAUlYOvI6JY-26" value="" style="endArrow=none;html=1;rounded=0;entryX=-0.008;entryY=0.65;entryDx=0;entryDy=0;entryPerimeter=0;" edge="1" parent="1" target="0BREnOfS-ZAUlYOvI6JY-9">
          <mxGeometry width="50" height="50" relative="1" as="geometry">
            <mxPoint x="100" y="242" as="sourcePoint" />
            <mxPoint x="322" y="128" as="targetPoint" />
          </mxGeometry>
        </mxCell>
        <mxCell id="0BREnOfS-ZAUlYOvI6JY-27" value="" style="endArrow=none;html=1;rounded=0;entryX=0;entryY=0.5;entryDx=0;entryDy=0;" edge="1" parent="1" source="0BREnOfS-ZAUlYOvI6JY-1" target="0BREnOfS-ZAUlYOvI6JY-7">
          <mxGeometry width="50" height="50" relative="1" as="geometry">
            <mxPoint x="110" y="252" as="sourcePoint" />
            <mxPoint x="332" y="138" as="targetPoint" />
          </mxGeometry>
        </mxCell>
        <mxCell id="0BREnOfS-ZAUlYOvI6JY-29" value="" style="endArrow=none;html=1;rounded=0;" edge="1" parent="1" source="0BREnOfS-ZAUlYOvI6JY-1" target="0BREnOfS-ZAUlYOvI6JY-8">
          <mxGeometry width="50" height="50" relative="1" as="geometry">
            <mxPoint x="390" y="300" as="sourcePoint" />
            <mxPoint x="440" y="250" as="targetPoint" />
          </mxGeometry>
        </mxCell>
      </root>
    </mxGraphModel>
  </diagram>
</mxfile>
